# xmcd
#
# Track frame offsets: 
#        182
#        13932
#        26000
#        40970
#        57195
#        76015
#        86682
#        101157
#        114860
#        129750
#        143962
#
# Disc length: 2192 seconds
#
# Revision: 5
# Processed by: cddbd v1.5.2PL0 Copyright (c) Steve Scherf et al.
# Submitted via: ExactAudioCopyFreeDBPlugin 1.0
#
DISCID=85088e0b
DTITLE=Asleep At The Wheel - The Wheel Keeps On Rollin'
DYEAR=1995
DGENRE=Western Swing
TTITLE0=Meanwhile Back At The Ranch
TTITLE1=How The West Was Swung
TTITLE2=Lay Down Sally
TTITLE3=The Wheel Keeps On Rollin'
TTITLE4=Hightower
TTITLE5=If I Could
TTITLE6=Smoke! Smoke! Smoke! (That Cigarette)
TTITLE7=Rockin' Rodeo
TTITLE8=She Came To Dance
TTITLE9=In My Dreams
TTITLE10=Lay Down Sally (Extended Mix)
EXTD=YEAR: 1995
EXTT0=
EXTT1=
EXTT2=
EXTT3=
EXTT4=
EXTT5=
EXTT6=
EXTT7=
EXTT8=
EXTT9=
EXTT10=
PLAYORDER=
